<?xml version="1.0" encoding="utf-8"?>
<!-- Generator: Adobe Illustrator 26.0.1, SVG Export Plug-In . SVG Version: 6.00 Build 0)  -->
<svg version="1.1" id="Слой_1" xmlns="http://www.w3.org/2000/svg" xmlns:xlink="http://www.w3.org/1999/xlink" x="0px" y="0px"
	 width="500px" height="164.6px" viewBox="0 0 500 164.6" style="enable-background:new 0 0 500 164.6;" xml:space="preserve">
<style type="text/css">
	.st0{fill:#FFD100;}
</style>
<g>
	<path class="st0" d="M477.3,164.6H22.7C10.2,164.6,0,154.5,0,141.9V22.7C0,10.2,10.2,0,22.7,0h454.6C489.8,0,500,10.2,500,22.7
		v119.3C500,154.5,489.8,164.6,477.3,164.6z"/>
	<g>
		<path id="path2" d="M212.7,33.8H244v8.1h-22.2v8.4h19.5v8.1h-19.5v8.7h22.5v8.1h-31.6V33.8z"/>
		<path id="path4" d="M262,42.2h-12.6v-8.4h34.3v8.4h-12.6v33H262L262,42.2L262,42.2z"/>
		<path id="path6" d="M299.6,33.5h8.4l17.8,41.8h-9.5l-3.8-9.3h-17.5l-3.8,9.3h-9.3L299.6,33.5z M309.2,57.9l-5.5-13.4l-5.5,13.4
			H309.2z"/>
		<path id="path8" d="M332.2,33.8h8.4L360,59.3V33.8h9v41.5h-7.8l-20.1-26.4v26.4h-9V33.8z"/>
		<path id="path10" d="M388.6,42.2H376v-8.4h34.3v8.4h-12.6v33h-9.1L388.6,42.2L388.6,42.2z"/>
		<path id="path12" d="M426.3,33.5h8.4l17.8,41.8h-9.5l-3.8-9.3h-17.5l-3.8,9.3h-9.3L426.3,33.5z M435.8,57.9l-5.5-13.4l-5.5,13.4
			H435.8z"/>
		<path id="path14" d="M181.8,45.5c0-2,1.6-3.6,3.6-3.6h15.9v-8.1H184c-6.4,0-11.6,5.2-11.6,11.6c0,5.3,3.7,10,8.8,11.2l9.4,2.3
			c1.9,0.5,3.2,2.1,3.2,4.1c0,2.3-1.9,4.2-4.2,4.2h-16v8.1h17.4c6.7,0,12.2-5.5,12.2-12.2c0-5.6-3.9-10.5-9.3-11.8l-9.4-2.3
			C183,48.6,181.8,47.1,181.8,45.5z"/>
		<path id="path16" d="M176.2,105.2c0-2.6,2.1-4.8,4.8-4.8h14.5V97h-14.7c-4.6,0-8.3,3.7-8.3,8.3c0,3.8,2.6,7.2,6.4,8.1l10.4,2.5
			c2.4,0.6,4.1,2.7,4.1,5.2c0,3-2.4,5.4-5.4,5.4h-14.4v3.4h14.6c4.9,0,8.9-4,8.9-8.9c0-4.1-2.8-7.7-6.8-8.7l-10.4-2.5
			C177.7,109.3,176.2,107.4,176.2,105.2z"/>
		<path id="path18" d="M429.7,105.2c0-2.6,2.1-4.8,4.8-4.8H449V97h-14.7c-4.6,0-8.3,3.7-8.3,8.3c0,3.8,2.6,7.2,6.4,8.1l10.4,2.5
			c2.4,0.6,4.1,2.7,4.1,5.2c0,3-2.4,5.4-5.4,5.4h-14.4v3.4h14.6c4.9,0,8.9-4,8.9-8.9c0-4.1-2.8-7.7-6.8-8.7l-10.4-2.5
			C431.2,109.3,429.7,107.4,429.7,105.2z"/>
		<path id="path20" d="M221.1,97h12.3c7.4,0,12.3,4,12.3,10.5v0.1c0,7.1-5.9,10.8-12.9,10.8h-8V130h-3.7L221.1,97L221.1,97z
			 M233,115c5.5,0,9-2.9,9-7.2v-0.1c0-4.7-3.5-7.2-8.8-7.2h-8.3V115L233,115L233,115z"/>
		<path id="path22" d="M269.1,113.6L269.1,113.6c0-9.2,6.8-17.1,16.9-17.1c10,0,16.8,7.9,16.8,17v0.1c0,9.1-6.8,17-16.9,17
			C275.9,130.5,269.1,122.7,269.1,113.6z M298.9,113.6L298.9,113.6c0-7.6-5.5-13.7-13-13.7c-7.5,0-12.9,6-12.9,13.5v0.1
			c0,7.5,5.5,13.6,13,13.6C293.5,127.1,298.9,121.1,298.9,113.6z"/>
		<path id="path24" d="M328.6,97h14.2c4,0,7.3,1.2,9.4,3.3c1.6,1.6,2.5,3.9,2.5,6.5v0.1c0,5.5-3.8,8.7-9,9.6l10.1,13.5h-4.6
			l-9.6-12.8h-9.4V130h-3.7L328.6,97L328.6,97z M342.5,113.8c5,0,8.5-2.5,8.5-6.8V107c0-4-3.1-6.5-8.4-6.5h-10.2v13.4L342.5,113.8
			L342.5,113.8z"/>
		<path id="path26" d="M389.1,100.5H378V97h25.9v3.4h-11.1V130H389L389.1,100.5L389.1,100.5z"/>
		<path id="path28" d="M104.3,84.6H49c-0.8,0-1.4,0.6-1.4,1.4v42.6c0,0.8,0.6,1.4,1.4,1.4h55.3c12.5,0,22.7-10.2,22.7-22.7
			C127,94.7,116.8,84.6,104.3,84.6z"/>
		<path id="path30" d="M132.7,34.9c0-0.8-0.6-1.4-1.4-1.4H75.9c-12.5,0-22.7,10.2-22.7,22.7s10.2,22.7,22.7,22.7h55.3
			c0.8,0,1.4-0.6,1.4-1.4V34.9"/>
	</g>
</g>
</svg>
